Coordinates
version=1
nRows=5
nColumns=107
inDegrees=yes

Units are S.I. units (second, meters, Newtons, ...)
If the header above contains a line with 'inDegrees', this indicates whether rotational values are in degrees (yes) or radians (no).

endheader
time	sternoclavicular_r2	sternoclavicular_r3	unrotscap_r3	unrotscap_r2	acromioclavicular_r2	acromioclavicular_r3	acromioclavicular_r1	unrothum_r1	unrothum_r3	unrothum_r2	elv_angle	shoulder_elv	shoulder1_r2	shoulder_rot	elbow_flexion	pro_sup	deviation	flexion	proximal_distal_r1	proximal_distal_r3	cmc_flexion	cmc_abduction	mp_flexion	ip_flexion	mcp2_flexion	mcp2_abduction	pm2_flexion	md2_flexion	mcp3_flexion	mcp3_abduction	pm3_flexion	md3_flexion	mcp4_flexion	mcp4_abduction	pm4_flexion	md4_flexion	mcp5_flexion	mcp5_abduction	pm5_flexion	md5_flexion	bicpt_tx	bicpt_ty	bicpt_tz	bicpt2_tx	bicpt2_ty	bicpt2_tz	ptpt_tx	ptpt_ty	ptpt_tz	FCUpt_tx	FCUpt_ty	FCUpt_tz	EDCpt_tx	EDCpt_ty	EDCpt_tz	APLpt_tx	APLpt_ty	APLpt_tz	FPLpt_tx	FPLpt_ty	FPLpt_tz	FPLpt2_tx	FPLpt2_ty	FPLpt2_tz	PEC1pt2_tx	PEC1pt2_ty	PEC1pt2_tz	PEC1pt3_tx	PEC1pt3_ty	PEC1pt3_tz	PEC2pt2_tx	PEC2pt2_ty	PEC2pt2_tz	PEC2pt3_tx	PEC2pt3_ty	PEC2pt3_tz	PEC3pt2_tx	PEC3pt2_ty	PEC3pt2_tz	PEC3pt3_tx	PEC3pt3_ty	PEC3pt3_tz	DELT2pt2a_tx	DELT2pt2a_ty	DELT2pt2a_tz	DELT2pt2_tx	DELT2pt2_ty	DELT2pt2_tz	LAT1pt2_tx	LAT1pt2_ty	LAT1pt2_tz	LAT1pt3_tx	LAT1pt3_ty	LAT1pt3_tz	LAT2pt2_tx	LAT2pt2_ty	LAT2pt2_tz	LAT2pt3_tx	LAT2pt3_ty	LAT2pt3_tz	LAT3pt2_tx	LAT3pt2_ty	LAT3pt2_tz	LAT3pt3_tx	LAT3pt3_ty	LAT3pt3_tz
      0.83333333	     -0.31333983	      0.13271596	     -0.13271596	      0.31333983	     -0.06344494	      0.51273970	      0.23047297	     -0.23047297	     -0.51273970	      0.06344494	    101.44559629	     74.18598935	     -1.77055967	    -35.56588913	     31.80808271	     84.22457827	      0.34302140	     -0.50452356	      0.36922013	     -0.25226178	     31.17883344	    -23.15069846	      2.22330301	      8.40890731	     29.46197502	      9.23626264	     30.79225050	      9.15990115	     46.79814175	      1.20055991	     27.35120454	     19.57212683	     43.34193374	     -8.05076280	     33.14666493	     22.10752471	     34.96389627	    -13.85467728	     43.53004832	      5.32045059	      0.00095211	     -0.03124569	     -0.00488723	      0.01441982	     -0.01884082	     -0.00137787	      0.00132675	     -0.06892405	     -0.00683474	      0.01253453	     -0.18229741	      0.00003608	     -0.01010693	      0.00348107	     -0.00070106	      0.00030304	      0.00012121	      0.00060607	      0.00038789	      0.00116366	      0.00065456	     -0.00001001	     -0.00023941	     -0.00028729	      0.00243165	      0.00853140	      0.00593488	     -0.00795439	      0.01920594	     -0.01821680	      0.00243165	      0.00853140	      0.00593488	      0.00053579	      0.01780465	     -0.00935569	      0.00387223	      0.00474420	      0.01577960	      0.00000000	      0.00735766	      0.00000000	     -0.00696525	     -0.03218850	     -0.00606426	      0.02113819	     -0.00095118	     -0.01038684	     -0.00086550	      0.01450749	     -0.00593488	      0.00239044	      0.02093695	     -0.01731008	     -0.00581124	      0.01257041	     -0.00531667	     -0.01211706	      0.02654212	     -0.02971564	     -0.02275039	      0.01405414	     -0.00713010	     -0.01508450	      0.03066357	     -0.03713424
      0.86666667	     -0.31331954	      0.13270737	     -0.13270737	      0.31331954	     -0.06344083	      0.51270649	      0.23045804	     -0.23045804	     -0.51270649	      0.06344083	    101.54930148	     74.18118537	     -1.77236966	    -35.57399210	     31.57563738	     82.57267699	      0.31906468	     -0.51547866	      0.34968984	     -0.25773933	     32.55595810	    -22.99621308	      1.91646297	      8.01605812	     20.53769888	      8.91264345	     25.27081014	      5.76737824	     37.27342815	      0.83018689	     19.71321972	     16.64631997	     34.05656096	     -6.69486868	     24.66565252	     19.45461888	     24.08907327	    -13.76381058	     36.93202769	      5.21764421	      0.00094442	     -0.03121905	     -0.00488293	      0.01458075	     -0.01877768	     -0.00165473	      0.00144881	     -0.06884513	     -0.00670167	      0.01234610	     -0.18235213	     -0.00000618	     -0.00990870	      0.00339175	     -0.00065035	      0.00030488	      0.00012195	      0.00060976	      0.00039025	      0.00117074	      0.00065854	     -0.00001137	     -0.00022507	     -0.00027009	      0.00243150	      0.00853084	      0.00593450	     -0.00795388	      0.01920470	     -0.01821562	      0.00243150	      0.00853084	      0.00593450	      0.00053575	      0.01780350	     -0.00935508	      0.00387204	      0.00474389	      0.01577913	      0.00000000	      0.00735670	      0.00000000	     -0.00696479	     -0.03218642	     -0.00606346	      0.02114119	     -0.00095147	     -0.01039128	     -0.00086545	      0.01450656	     -0.00593450	      0.00239028	      0.02093560	     -0.01730896	     -0.00581086	      0.01256960	     -0.00531632	     -0.01211627	      0.02654040	     -0.02971371	     -0.02274892	      0.01405323	     -0.00712964	     -0.01508352	      0.03066158	     -0.03713184
      0.90000000	     -0.31334759	      0.13271925	     -0.13271925	      0.31334759	     -0.06344651	      0.51275240	      0.23047868	     -0.23047868	     -0.51275240	      0.06344651	    101.52773678	     74.18782762	     -1.77199329	    -35.35351151	     31.58455654	     81.09581529	      0.30009046	     -0.49569206	      0.33355497	     -0.24784603	     32.78202201	    -22.75301934	      3.39484303	      8.40090110	     12.88600250	      8.69691757	     20.15828349	      1.09494126	     27.66910613	      0.76012044	     14.20188189	     14.34423846	     24.91499910	     -5.25590017	     17.11423301	     18.36787295	     13.08871855	    -13.58898945	     31.34847214	      5.27856729	      0.00094472	     -0.03122007	     -0.00488310	      0.01471933	     -0.01878010	     -0.00189901	      0.00155793	     -0.06877457	     -0.00658270	      0.01217834	     -0.18240040	     -0.00004222	     -0.00973148	      0.00331260	     -0.00060626	      0.00030142	      0.00012057	      0.00060283	      0.00038581	      0.00115743	      0.00065106	     -0.00001156	     -0.00022253	     -0.00026703	      0.00243171	      0.00853161	      0.00593503	     -0.00795459	      0.01920642	     -0.01821725	      0.00243171	      0.00853161	      0.00593503	      0.00053580	      0.01780509	     -0.00935592	      0.00387230	      0.00474432	      0.01577978	      0.00000000	      0.00735803	      0.00000000	     -0.00696542	     -0.03218930	     -0.00606456	      0.02105955	     -0.00094364	     -0.01027048	     -0.00086553	      0.01450785	     -0.00593503	      0.00239050	      0.02093747	     -0.01731051	     -0.00581138	      0.01257073	     -0.00531680	     -0.01211736	      0.02654278	     -0.02971637	     -0.02275095	      0.01405448	     -0.00713028	     -0.01508487	      0.03066433	     -0.03713516
      0.93333333	     -0.31431736	      0.13313000	     -0.13313000	      0.31431736	     -0.06364287	      0.51433931	      0.23119198	     -0.23119198	     -0.51433931	      0.06364287	    101.35143246	     74.41742951	     -1.76891620	    -34.33283672	     31.32750022	     79.15126115	      0.28163252	     -0.49458178	      0.31729355	     -0.24729089	     33.56664203	    -22.49823761	      3.91284393	      8.29475129	      6.28030829	      8.76211813	     16.79707374	     -2.11695101	     19.15194895	      0.69978830	     10.58126036	     12.80481448	     17.13289604	     -4.31288090	     11.09899029	     17.48145513	      3.87345838	    -13.37697676	     26.77790189	      5.21317568	      0.00093622	     -0.03119061	     -0.00487835	      0.01489420	     -0.01871027	     -0.00221599	      0.00170161	     -0.06868166	     -0.00642606	      0.01195848	     -0.18246300	     -0.00008718	     -0.00949813	      0.00320942	     -0.00055002	      0.00030118	      0.00012047	      0.00060235	      0.00038551	      0.00115652	      0.00065054	     -0.00001211	     -0.00021325	     -0.00025591	      0.00243924	      0.00855801	      0.00595340	     -0.00797921	      0.01926586	     -0.01827363	      0.00243924	      0.00855801	      0.00595340	      0.00053746	      0.01786020	     -0.00938487	      0.00388115	      0.00475900	      0.01580206	      0.00000000	      0.00740394	      0.00000000	     -0.00698698	     -0.03228892	     -0.00610269	      0.02067328	     -0.00090752	     -0.00971770	     -0.00086820	      0.01455275	     -0.00595340	      0.00239790	      0.02100227	     -0.01736408	     -0.00582937	      0.01260963	     -0.00533325	     -0.01215486	      0.02662493	     -0.02980834	     -0.02282136	      0.01409798	     -0.00715235	     -0.01513156	      0.03075923	     -0.03725009
      0.96666667	     -0.31560606	      0.13367583	     -0.13367583	      0.31560606	     -0.06390381	      0.51644809	      0.23213986	     -0.23213986	     -0.51644809	      0.06390381	    101.08210156	     74.72253950	     -1.76421549	    -32.93268807	     31.07730230	     76.97747481	      0.26462335	     -0.49030772	      0.30181554	     -0.24515386	     33.89610289	    -22.29096520	      4.90385905	      8.36390075	      0.82508068	      8.84764400	     14.45053031	     -5.33993309	     11.13008283	      0.63812256	      8.77073336	     11.69341561	      9.99532880	     -3.58669934	      6.14768637	     17.28247067	     -4.49966209	    -13.17316683	     23.40087960	      5.24510639	      0.00092794	     -0.03116193	     -0.00487373	      0.01507944	     -0.01864230	     -0.00256407	      0.00186223	     -0.06857780	     -0.00625095	      0.01171409	     -0.18253172	     -0.00013406	     -0.00923728	      0.00309545	     -0.00048957	      0.00030033	      0.00012013	      0.00060067	      0.00038443	      0.00115328	      0.00064872	     -0.00001229	     -0.00020911	     -0.00025093	      0.00244924	      0.00859310	      0.00597781	     -0.00801192	      0.01934485	     -0.01834855	      0.00244924	      0.00859310	      0.00597781	      0.00053966	      0.01793342	     -0.00942335	      0.00389288	      0.00477851	      0.01583147	      0.00000000	      0.00746517	      0.00000000	     -0.00701562	     -0.03242131	     -0.00615355	      0.02012056	     -0.00085838	     -0.00897755	     -0.00087176	      0.01461242	     -0.00597781	      0.00240773	      0.02108838	     -0.01743527	     -0.00585327	      0.01266133	     -0.00535512	     -0.01220469	      0.02673409	     -0.02993055	     -0.02291493	      0.01415578	     -0.00718167	     -0.01519360	      0.03088534	     -0.03740281
